<?xml version="1.0" standalone="no"?>
<!DOCTYPE svg PUBLIC "-//W3C//DTD SVG 20010904//EN"
 "http://www.w3.org/TR/2001/REC-SVG-20010904/DTD/svg10.dtd">
<svg version="1.0" xmlns="http://www.w3.org/2000/svg"
 width="128.000000pt" height="128.000000pt" viewBox="0 0 128.000000 128.000000"
 preserveAspectRatio="xMidYMid meet">
<metadata>
Created by potrace 1.11, written by Peter Selinger 2001-2013
</metadata>
<g transform="translate(0.000000,128.000000) scale(0.100000,-0.100000)"
fill="#000000" stroke="none">
<path d="M611 1193 c-101 -25 -174 -90 -210 -187 -28 -74 -27 -143 4 -247 13
-46 25 -87 25 -90 0 -4 -23 -9 -51 -11 -66 -7 -92 -35 -84 -90 3 -21 1 -38 -3
-38 -19 0 -55 -41 -67 -76 -21 -61 9 -131 65 -155 19 -9 40 -29 51 -52 27 -53
71 -77 139 -77 68 0 115 26 136 75 19 47 18 84 -6 123 -22 35 -26 57 -10 47 6
-4 10 14 10 47 l0 53 75 0 75 0 1 -35 c1 -19 1 -42 0 -52 -3 -24 17 -32 84
-34 33 -1 62 -2 64 -3 3 0 -6 -12 -19 -26 -22 -23 -30 -25 -122 -25 -91 0 -98
-1 -98 -20 0 -19 7 -20 95 -20 110 0 146 13 171 63 9 17 18 33 19 35 2 2 17
-4 34 -12 46 -24 57 -57 57 -171 l-1 -100 -358 -1 -357 -2 0 29 c0 22 -5 29
-20 29 -17 0 -20 -7 -20 -44 0 -26 5 -46 13 -48 6 -2 182 -4 390 -3 271 0 380
3 385 12 9 14 8 195 -2 245 -4 24 -19 47 -42 67 -36 32 -36 32 -169 35 l-60 1
-3 49 c-3 45 0 51 34 82 20 19 43 34 50 34 36 0 114 171 119 262 12 217 -187
385 -394 331z m169 -272 c12 -46 52 -91 80 -91 14 0 16 -10 14 -69 -4 -127
-66 -201 -172 -209 -74 -5 -126 19 -168 79 -25 36 -30 53 -33 121 l-3 78 84 0
c112 0 145 22 169 110 6 25 13 41 15 35 1 -5 8 -30 14 -54z"/>
<path d="M574 776 c-20 -15 -13 -43 12 -53 10 -4 22 1 30 11 24 33 -9 66 -42
42z"/>
<path d="M762 778 c-15 -15 -16 -45 -2 -53 6 -3 19 -3 30 0 24 8 27 50 4 59
-20 8 -18 8 -32 -6z"/>
<path d="M620 645 c0 -25 38 -55 69 -55 35 0 79 46 61 64 -7 7 -15 3 -26 -12
-20 -28 -64 -30 -71 -2 -6 23 -33 27 -33 5z"/>
</g>
</svg>
